# xmcd CD database file
#
# Track frame offsets:
#	150
#	13403
#	28080
#	43487
#	61990
#	81351
#	99510
#	113204
#	125678
#	140980
#	158021
#	176213
#	192569
#	207546
#	221719
#	239850
#	258966
#	270639
#	286529
#	300823
#
# Disc length: 4232 seconds
#
# Revision: 0
# Processed by: cddbd v1.5.2PL0 Copyright (c) Steve Scherf et al.
# Submitted via: CDex 2.10
#
DISCID=3b108614
DTITLE=Various Artist - Hott Country 45
DYEAR=1999
DGENRE=Country
TTITLE0=Shania Twain - Come On Over
TTITLE1=Jessica Andrews - You Go First (Do You Wanna Kiss)
TTITLE2=Joe Diffie - The Qittin` Kind
TTITLE3=Clint Black - When I Said I Do
TTITLE4=Gary Allan - Smoke Rings In The Dark
TTITLE5=MArk Wills - She`s In Love
TTITLE6=Kenny Rogers - Slow Dance More
TTITLE7=Mindy McCreedy - All Wants Is Everthing
TTITLE8=Jack Ingram - How Many Days
TTITLE9=Keith Glass - One Of Those Nights
TTITLE10=Trace Adkins - Don`t Lie
TTITLE11=Ty Herndon - Steam
TTITLE12=Lila McCann - Crush
TTITLE13=South Sixty Five - Baby`s Got My Number
TTITLE14=Paul Brandt  - It`s A Beauitful Thing
TTITLE15=Sammy Kershaw - When You Love Someone
TTITLE16=Matt King - Rub It In
TTITLE17=Oak Ridge Boys - Ain`t No Short Way Home
TTITLE18=Claudia Church - It`s All Your Fault
TTITLE19=Michelle Wright - When I Found You
EXTD=YEAR: 1999
EXTT0=
EXTT1=
EXTT2=
EXTT3=
EXTT4=
EXTT5=
EXTT6=
EXTT7=
EXTT8=
EXTT9=
EXTT10=
EXTT11=
EXTT12=
EXTT13=
EXTT14=
EXTT15=
EXTT16=
EXTT17=
EXTT18=
EXTT19=
PLAYORDER=
